# xmcd
#
# Track frame offsets:
# 150
# 21137
# 39632
# 57962
# 77050
# 121012
# 136097
# 156040
# 172080
# 193852
# 218820
# 236690
# 259952
# 284242
# 305382
# 325287
#
# Disc length: 4593 seconds
#
#
# Revision: 24
# Processed by: cddbd v1.5.2PL0 Copyright (c) Steve Scherf et al.
# Submitted via: FreeRIP 2.942 
#
DISCID=e911ef10
DTITLE=Eros Ramazzotti - Eros
DYEAR=1997
DGENRE=Other
TTITLE0=Terra promessa
TTITLE1=Una storia importante
TTITLE2=Adesso tu
TTITLE3=Ma che bello questo amore
TTITLE4=Musica e' (duetto con Andrea Bocelli)
TTITLE5=Occhi di ssperanza
TTITLE6=Piu' bella cosa
TTITLE7=Memorie
TTITLE8=Cose della vita (duetto con Tina Turner)
TTITLE9=L' aurora
TTITLE10=Ancora un minuto di sole
TTITLE11=Quasi amore
TTITLE12=Se bastasse una canzone
TTITLE13=Un' altra te
TTITLE14=Favola
TTITLE15=Quanto amore sei
EXTD=
EXTT0=
EXTT1=
EXTT2=
EXTT3=
EXTT4=
EXTT5=
EXTT6=
EXTT7=
EXTT8=
EXTT9=
EXTT10=
EXTT11=
EXTT12=
EXTT13=
EXTT14=
EXTT15=
PLAYORDER=
